<?xml version="1.0" standalone="no"?>
<!DOCTYPE svg PUBLIC "-//W3C//DTD SVG 20010904//EN"
 "http://www.w3.org/TR/2001/REC-SVG-20010904/DTD/svg10.dtd">
<svg version="1.0" xmlns="http://www.w3.org/2000/svg"
 width="200.000000pt" height="200.000000pt" viewBox="0 0 200.000000 200.000000"
 preserveAspectRatio="xMidYMid meet">
<metadata>
Created by potrace 1.11, written by Peter Selinger 2001-2013
</metadata>
<g transform="translate(0.000000,200.000000) scale(0.100000,-0.100000)"
fill="#000000" stroke="none">
<path d="M1280 1875 c-118 -46 -196 -118 -225 -206 l-17 -49 -24 30 c-29 34
-109 90 -128 90 -16 0 -14 -63 3 -127 12 -43 55 -89 113 -119 27 -14 39 -15
83 -5 64 15 117 43 157 83 32 33 73 114 82 164 3 16 7 43 10 59 15 77 16 94 9
98 -4 2 -33 -6 -63 -18z"/>
<path d="M715 1462 c-60 -9 -146 -37 -192 -63 -67 -38 -164 -143 -197 -213
-33 -69 -56 -178 -56 -263 0 -50 -5 -71 -20 -90 -24 -31 -25 -56 -4 -78 11
-11 20 -13 28 -6 9 8 17 -7 30 -56 20 -77 13 -92 -33 -69 -30 16 -31 16 -31
-3 0 -26 35 -45 69 -38 25 5 29 0 76 -101 28 -59 75 -145 106 -192 84 -128
147 -177 243 -187 45 -5 65 0 151 36 133 56 171 57 290 5 218 -94 334 -25 493
292 51 101 105 236 116 289 4 17 9 41 12 55 3 14 7 68 9 120 7 176 -40 304
-151 416 -98 98 -203 145 -323 145 -78 -1 -112 -8 -204 -46 -38 -15 -76 -28
-84 -29 -9 -2 -47 10 -86 26 -38 16 -78 32 -90 34 -43 10 -132 19 -152 16z
m-438 -674 c-3 -8 -6 -5 -6 6 -1 11 2 17 5 13 3 -3 4 -12 1 -19z"/>
</g>
</svg>
